<?xml version="1.0" encoding="UTF-8"?>
<svg width="45px" height="45px" viewBox="0 0 45 45" version="1.1" xmlns="http://www.w3.org/2000/svg" xmlns:xlink="http://www.w3.org/1999/xlink">
    <!-- Generator: Sketch 52.2 (67145) - http://www.bohemiancoding.com/sketch -->
    <title>icons/ic-add-meeting-alt-o</title>
    <desc>Created with Sketch.</desc>
    <g id="icons/ic-add-meeting-alt-o" stroke="none" stroke-width="1" fill="none" fill-rule="evenodd">
        <g id="Group-2">
            <circle id="Oval-4" fill="#7ED321" fill-rule="nonzero" cx="22.5" cy="22.5" r="22.5"></circle>
            <path d="M30.5,35 C27.4658333,35 25,32.31 25,29 C25,25.69 27.4658333,23 30.5,23 C33.5341667,23 36,25.69 36,29 C36,32.31 33.5341667,35 30.5,35 Z M34,29 L32,29 L32,27 L30,27 L30,29 L28,29 L28,31 L30,31 L30,33 L32,33 L32,31 L34,31 L34,29 Z M32.08,17.75 L11.92,17.75 L11.92,33.0833333 L23.5168,33.0833333 C23.9392,33.8020833 24.4672,34.45375 25.0912,35 L10,35 L10,12 L12.88,12 L12.88,14.875 L16.72,14.875 L16.72,12 L27.28,12 L27.28,14.875 L31.12,14.875 L31.12,12 L34,12 L34,22.6183333 C33.4048,22.2733333 32.7616,22.0145833 32.08,21.8325 L32.08,17.75 Z M28,14 L30,14 L30,10 L28,10 L28,14 Z M14,14 L16,14 L16,10 L14,10 L14,14 Z" id="Fill-1" fill="#FFFFFF"></path>
        </g>
    </g>
</svg>