<?xml version="1.0" encoding="utf-8"?>
<!-- Generator: Adobe Illustrator 23.0.0, SVG Export Plug-In . SVG Version: 6.00 Build 0)  -->
<svg version="1.1" id="Layer_1" xmlns="http://www.w3.org/2000/svg" xmlns:xlink="http://www.w3.org/1999/xlink" x="0px" y="0px"
	 viewBox="0 0 45 45" style="enable-background:new 0 0 45 45;" xml:space="preserve">
<style type="text/css">
	.st0{fill:#7ED321;}
	.st1{fill-rule:evenodd;clip-rule:evenodd;fill:#FFFFFF;}
</style>
<title>icons/ic-add-meeting-alt-o</title>
<desc>Created with Sketch.</desc>
<g>
	<g id="Group-2">
		<circle id="Oval-4" class="st0" cx="22.5" cy="22.5" r="22.5"/>
		<g>
			<path id="Fill-1" class="st1" d="M31,36c-3.9,0-7-3.1-7-7s3.1-7,7-7s7,3.1,7,7S34.9,36,31,36z M34,28h-2v-2h-2v2h-2v2h2v2h2v-2h2
				V28z M33.8,20.4v-1.1H20.4v1.1h11.2c-2.3,0-4.3,0.8-5.9,2.1h-5.3v1.1h4.2c-0.5,0.6-1,1.3-1.3,2.1h-2.9v1.1h2.5
				c-0.2,0.7-0.3,1.4-0.3,2.1c0,1.1,0.2,2.2,0.7,3.2H7V13h7.8v2.1h-1.1v1.1h4.5v-1.1H17V13h10v2.1H26v1.1h4.5v-1.1h-1.1V13H36v8.5
				c-1.3-0.7-2.8-1.1-4.5-1.1H33.8z M9.9,28h7.7v-8H9.9V28z M14.7,13h1.9v-2h-1.9V13z M28.3,13h1.9v-2h-1.9V13z"/>
		</g>
	</g>
</g>
</svg>
