<?xml version="1.0" encoding="utf-8"?>
<!-- Generator: Adobe Illustrator 23.0.0, SVG Export Plug-In . SVG Version: 6.00 Build 0)  -->
<svg version="1.1" id="Layer_1" xmlns="http://www.w3.org/2000/svg" xmlns:xlink="http://www.w3.org/1999/xlink" x="0px" y="0px"
	 viewBox="0 0 25 25" style="enable-background:new 0 0 25 25;" xml:space="preserve">
<style type="text/css">
	.st0{fill-rule:evenodd;clip-rule:evenodd;fill:#4A4A4A;}
</style>
<title>icons/ic-add-contact</title>
<desc>Created with Sketch.</desc>
<g>
	<path id="Fill-1" class="st0" d="M18.3,21c-2.6,0-4.7-2.1-4.7-4.7s2.1-4.7,4.7-4.7s4.7,2.1,4.7,4.7S20.9,21,18.3,21z M20.3,15.5
		h-1.4v-1.4h-1.4v1.4h-1.4v1.4h1.4v1.4h1.4v-1.4h1.4V15.5z M20.2,10.4V9.7h-9.1v0.7h7.6c-1.5,0-2.9,0.5-4,1.4h-3.6v0.7h2.8
		C13.6,13,13.3,13.4,13,14h-2v0.7h1.7c-0.1,0.5-0.2,0.9-0.2,1.4c0,0.8,0.2,1.5,0.4,2.1H2V5.4h5.3v1.4H6.5v0.7h3V6.8H8.8V5.4h6.8v1.4
		h-0.8v0.7h3V6.8h-0.8V5.4h4.5v5.8c-0.9-0.5-1.9-0.8-3-0.8H20.2z M4,15.5h5.2v-5.4H4V15.5z M7.2,5.4h1.3V4H7.2V5.4z M16.4,5.4h1.3V4
		h-1.3V5.4z"/>
</g>
</svg>
