<?xml version="1.0" encoding="utf-8"?>
<!-- Generator: Adobe Illustrator 23.0.0, SVG Export Plug-In . SVG Version: 6.00 Build 0)  -->
<svg version="1.1" id="Layer_1" xmlns="http://www.w3.org/2000/svg" xmlns:xlink="http://www.w3.org/1999/xlink" x="0px" y="0px"
	 viewBox="0 0 25 25" style="enable-background:new 0 0 25 25;" xml:space="preserve">
<style type="text/css">
	.st0{fill-rule:evenodd;clip-rule:evenodd;fill:#4A4A4A;}
</style>
<title>icons/ic-add-meeting</title>
<desc>Created with Sketch.</desc>
<g>
	<path id="Fill-1" class="st0" d="M17.7,20.2c-2.1,0-3.8-1.6-3.8-3.6s1.7-3.6,3.8-3.6s3.8,1.6,3.8,3.6S19.8,20.2,17.7,20.2z
		 M19.6,16.1h-1.2v-1.2h-1.2v1.2H16v1.2h1.2v1.2h1.2v-1.2h1.2V16.1z M18.8,9.1h-14v8.3h8c0.3,0.4,0.7,0.7,1.1,1H3.5V6h2v1.6h2.7V6
		h7.3v1.6h2.7V6h2v5.8c-0.4-0.2-0.9-0.3-1.3-0.4V9.1z M16,7.2h1.4V4.8H16V7.2z M6.3,7.2h1.4V4.8H6.3V7.2z"/>
</g>
</svg>
