<?xml version="1.0" encoding="UTF-8"?>
<svg width="18px" height="13px" viewBox="0 0 18 13" version="1.1" xmlns="http://www.w3.org/2000/svg" xmlns:xlink="http://www.w3.org/1999/xlink">
    <!-- Generator: Sketch 52.2 (67145) - http://www.bohemiancoding.com/sketch -->
    <title>icons/ic-contact-phone</title>
    <desc>Created with Sketch.</desc>
    <g id="icons/ic-contact-phone" stroke="none" stroke-width="1" fill="none" fill-rule="evenodd">
        <g fill="#142F4E">
            <path d="M4.46022728,4.5321356 L1.90857893,10.9821356 C1.70541304,11.4956938 1.95703574,12.0767136 2.47059398,12.2798794 C2.5877058,12.3262094 2.71251537,12.35 2.83845838,12.35 L14.4705498,12.35 C15.0228345,12.35 15.4705498,11.9022847 15.4705498,11.35 C15.4705498,11.2436251 15.453577,11.1379315 15.4202716,11.0369049 L13.2938979,4.58690491 C13.1587518,4.17696179 12.7758216,3.9 12.3441761,3.9 L10.8388743,3.9 L10.8388743,5.15333333 C10.8388743,5.70561808 10.3911591,6.15333333 9.83887434,6.15333333 L7.93887434,6.15333333 C7.38658959,6.15333333 6.93887434,5.70561808 6.93887434,5.15333333 L6.93887434,3.9 L5.39010673,3.9 C4.97981775,3.9 4.61115799,4.15061631 4.46022728,4.5321356 Z" id="Path-38"></path>
            <path d="M0.385718209,4.07334391 L0.385712377,4.72001934 C0.385711399,5.27230409 0.833425857,5.72002013 1.38571061,5.72002111 C1.38571217,5.72002111 1.38571373,5.72002111 1.38571529,5.72002111 L1.93550381,5.7200119 C2.48778742,5.72001029 2.93550089,5.27229551 2.93550089,4.7200119 L2.93550381,4.25003987 C2.93550381,3.69775512 3.38321906,3.25003987 3.93550381,3.25003987 L13.3779594,3.25003987 C13.8348898,3.25003987 14.2337031,3.55975866 14.346828,4.00246415 L14.5934473,4.96759 C14.7065719,5.41029439 15.1053836,5.72001288 15.5623128,5.72001428 L16.2143062,5.72001934 C16.766591,5.72002103 17.2143076,5.27230715 17.2143093,4.7200224 C17.2143093,4.72002138 17.2143093,4.72002036 17.2143093,4.72001934 L17.2143062,3.25001364 C17.2143062,1.88586716 16.108447,0.780007935 14.7443005,0.780007935 L3.67905127,0.780007935 C1.86019365,0.780007935 0.385718209,2.25448337 0.385718209,4.073341 C0.385718209,4.07334197 0.385718209,4.07334294 0.385718209,4.07334391 Z" id="Path-40"></path>
        </g>
    </g>
</svg>