<?xml version="1.0" encoding="UTF-8"?>
<svg width="27px" height="23px" viewBox="0 0 27 23" version="1.1" xmlns="http://www.w3.org/2000/svg" xmlns:xlink="http://www.w3.org/1999/xlink">
    <!-- Generator: Sketch 52.2 (67145) - http://www.bohemiancoding.com/sketch -->
    <title>icons/ic-chat-active</title>
    <desc>Created with Sketch.</desc>
    <g id="icons/ic-chat-active" stroke="none" stroke-width="1" fill="none" fill-rule="evenodd">
        <g id="icon-chat-active" fill="#FFFFFF">
            <path d="M25.9616423,1.04566364 L1.03856538,1.04566364 L1.03856538,17.7729364 L5.19241154,17.7729364 L5.19241154,21.9547545 L9.34625769,17.7729364 L25.9616423,17.7729364 L25.9616423,1.04566364 Z M0.000103846154,0.000209090909 L23.8847192,0.000209090909 L27.0001038,0.000209090909 L27.0001038,18.8183909 L9.77202692,18.8183909 L5.92971923,22.6970273 C5.73241154,22.8946182 5.46241154,23.0002091 5.19241154,23.0002091 C5.05741154,23.0002091 4.92241154,22.9782545 4.79779615,22.9165727 C4.40318077,22.7597545 4.15395,22.3718909 4.15395,21.9547545 L4.15395,18.8183909 L0.000103846154,18.8183909 L0.000103846154,0.000209090909 Z M3.11538462,4.18181818 L23.8846154,4.18181818 L23.8846154,5.22727273 L3.11538462,5.22727273 L3.11538462,4.18181818 Z M3.11538462,8.36363636 L21.8076923,8.36363636 L21.8076923,9.40909091 L3.11538462,9.40909091 L3.11538462,8.36363636 Z M3.11538462,13.5909091 L18.6923077,13.5909091 L18.6923077,14.6363636 L3.11538462,14.6363636 L3.11538462,13.5909091 Z" id="Combined-Shape"></path>
        </g>
    </g>
</svg>