<?xml version="1.0" encoding="utf-8"?>
<!-- Generator: Adobe Illustrator 23.0.0, SVG Export Plug-In . SVG Version: 6.00 Build 0)  -->
<svg version="1.1" id="Layer_1" xmlns="http://www.w3.org/2000/svg" xmlns:xlink="http://www.w3.org/1999/xlink" x="0px" y="0px"
	 viewBox="0 0 25 25" style="enable-background:new 0 0 25 25;" xml:space="preserve">
<style type="text/css">
	.st0{fill-rule:evenodd;clip-rule:evenodd;fill:#4A4A4A;}
</style>
<title>icons/ic-logout</title>
<desc>Created with Sketch.</desc>
<g>
	<path id="Fill-1" class="st0" d="M3.9,13.7c0,4.7,3.8,8.5,8.5,8.5s8.5-3.8,8.5-8.5c0-3.7-2.4-6.8-5.7-8v2.8c1.9,1,3.1,3,3.1,5.2
		c0,3.3-2.7,5.9-6,5.9S6.5,17,6.5,13.7c0-2.3,1.3-4.2,3.1-5.2V5.7C6.3,6.9,3.9,10,3.9,13.7 M11.2,4v7.3c0,0.7,0.5,1.2,1.2,1.2
		s1.2-0.5,1.2-1.2V4c0-0.7-0.5-1.2-1.2-1.2S11.2,3.3,11.2,4"/>
</g>
</svg>
