<?xml version="1.0" encoding="UTF-8"?>
<svg width="33px" height="34px" viewBox="0 0 33 34" version="1.1" xmlns="http://www.w3.org/2000/svg" xmlns:xlink="http://www.w3.org/1999/xlink">
    <!-- Generator: Sketch 52.2 (67145) - http://www.bohemiancoding.com/sketch -->
    <title>icons/ic-meetings</title>
    <desc>Created with Sketch.</desc>
    <g id="icons/ic-meetings" stroke="none" stroke-width="1" fill="none" fill-rule="evenodd">
        <g id="YPO-_Calender" stroke="#999999" stroke-width="2">
            <path d="M5.19348683,0.0145066667 L7.77411253,0.0145066667 L7.77411253,5.24098667 L5.19348683,5.24098667 L5.19348683,0.0145066667 Z M24.549075,0.0145066667 L27.1314916,0.0145066667 L27.1314916,5.24098667 L24.5499704,5.24098667 L24.549075,0.0145066667 Z M27.1314916,19.6130133 L24.5499704,19.6130133 L24.5499704,22.22648 L27.1314916,22.22648 L27.1314916,19.6130133 Z M27.1314916,13.08048 L24.5499704,13.08048 L24.5499704,15.6934933 L27.1314916,15.6934933 L27.1314916,13.08048 Z M20.6790319,26.146 L18.0979585,26.146 L18.0979585,28.7590133 L20.6790319,28.7590133 L20.6790319,26.146 Z M20.6790319,19.6130133 L18.0979585,19.6130133 L18.0979585,22.22648 L20.6790319,22.22648 L20.6790319,19.6130133 Z M20.6790319,13.08048 L18.0979585,13.08048 L18.0979585,15.6934933 L20.6790319,15.6934933 L20.6790319,13.08048 Z M14.2270199,26.146 L11.6459465,26.146 L11.6459465,28.7590133 L14.2270199,28.7590133 L14.2270199,26.146 Z M14.2270199,19.6130133 L11.6459465,19.6130133 L11.6459465,22.22648 L14.2270199,22.22648 L14.2270199,19.6130133 Z M14.2270199,13.08048 L11.6459465,13.08048 L11.6459465,15.6934933 L14.2270199,15.6934933 L14.2270199,13.08048 Z M7.77500796,26.146 L5.19348683,26.146 L5.19348683,28.7590133 L7.77411253,28.7590133 L7.77500796,26.146 Z M7.77500796,19.6130133 L5.19348683,19.6130133 L5.19348683,22.22648 L7.77411253,22.22648 L7.77500796,19.6130133 Z M7.77500796,13.08048 L5.19348683,13.08048 L5.19348683,15.6934933 L7.77411253,15.6934933 L7.77500796,13.08048 Z M0.0326831499,33.9854933 L0.0326831499,2.62933333 L3.90406941,2.62933333 L3.90406941,6.54930667 L9.06532081,6.54930667 L9.06532081,2.62933333 L23.2578667,2.62933333 L23.2578667,6.54930667 L28.420909,6.54930667 L28.420909,2.62933333 L32.2922952,2.62933333 L32.2922952,33.9854933 L0.0326831499,33.9854933 Z" id="Shape"></path>
        </g>
    </g>
</svg>